<svg width="41" height="41" viewBox="0 0 41 41" fill="none" xmlns="http://www.w3.org/2000/svg">
<path d="M0.481476 20.25C0.481476 9.2043 9.43578 0.25 20.4815 0.25C31.5272 0.25 40.4815 9.2043 40.4815 20.25C40.4815 31.2957 31.5272 40.25 20.4815 40.25C9.43578 40.25 0.481476 31.2957 0.481476 20.25Z" fill="white"/>
<path d="M20.4815 14.9345C22.1089 14.9345 23.2067 15.6374 23.8326 16.2248L26.2785 13.8367C24.7763 12.4404 22.8215 11.5833 20.4815 11.5833C17.0918 11.5833 14.1644 13.5285 12.7393 16.3596L15.5415 18.5359C16.2444 16.4463 18.1896 14.9345 20.4815 14.9345Z" fill="#EA4335"/>
<path d="M28.8015 20.4426C28.8015 19.73 28.7437 19.21 28.6185 18.6707H20.4815V21.887H25.2578C25.1615 22.6863 24.6415 23.89 23.4859 24.6989L26.2207 26.8174C27.8578 25.3056 28.8015 23.0811 28.8015 20.4426Z" fill="#4285F4"/>
<path d="M15.5511 21.9641C15.3681 21.4248 15.2622 20.8471 15.2622 20.25C15.2622 19.653 15.3681 19.0752 15.5415 18.5359L12.7393 16.3596C12.1518 17.5345 11.8148 18.8537 11.8148 20.25C11.8148 21.6463 12.1518 22.9656 12.7393 24.1404L15.5511 21.9641Z" fill="#FBBC05"/>
<path d="M20.4815 28.9167C22.8215 28.9167 24.7859 28.1463 26.2207 26.8174L23.4859 24.6989C22.7541 25.2093 21.7718 25.5656 20.4815 25.5656C18.1896 25.5656 16.2444 24.0537 15.5511 21.9641L12.7489 24.1404C14.1741 26.9715 17.0918 28.9167 20.4815 28.9167Z" fill="#34A853"/>
</svg>
